<?xml version="1.0" encoding="utf-8"?>
<!-- Generator: Adobe Illustrator 19.0.0, SVG Export Plug-In . SVG Version: 6.00 Build 0)  -->
<svg version="1.1" id="Capa_1" xmlns="http://www.w3.org/2000/svg" xmlns:xlink="http://www.w3.org/1999/xlink" x="0px" y="0px"
	 viewBox="-193 195 512 512" style="enable-background:new -193 195 512 512;" xml:space="preserve">
<style type="text/css">
	.st0{fill:#006DF0;}
	.st1{fill:none;stroke:#006DF0;stroke-width:15;stroke-miterlimit:10;}
</style>
<g>
	<path class="st0" d="M140.2,611.6l-7.1-35.5c-0.5-2.5-2.7-4.3-5.2-4.3h-7.4c-2.8-5.8-9.2-20.6-11.8-41
		c-4.6-35.2,3.4-69.2,23.8-101.3c1.3-2.1,1-4.9-0.7-6.6c-26.7-26.7-42.7-62-45.3-99.6c2.1-3.9,3.2-8.2,3.2-12.6
		c0-14.7-12-26.6-26.6-26.6s-26.6,12-26.6,26.6c0,4.4,1.1,8.8,3.2,12.6C37,360.9,21,396.2-5.7,422.9c-1.8,1.8-2.1,4.5-0.7,6.6
		C14,461.6,22,495.7,17.4,530.9c-2.7,20.3-9,35.2-11.8,41h-7.4c-2.5,0-4.7,1.8-5.2,4.3l-7.1,35.5c-0.3,1.6,0.1,3.2,1.1,4.4
		c1,1.2,2.5,2,4.1,2H135c1.6,0,3.1-0.7,4.1-2C140.1,614.8,140.5,613.2,140.2,611.6z M63,421.4c2.9,0,5.3,2.4,5.3,5.3
		S65.9,432,63,432s-5.3-2.4-5.3-5.3S60.1,421.4,63,421.4z M25.3,546.9l37.7,0c2.9,0,5.3-2.4,5.3-5.3c0-2.9-2.4-5.3-5.3-5.3l-35.6,0
		c0.2-1.2,0.4-2.3,0.5-3.5c3.4-25.3,2-63.8-23.1-105.3c27.1-28.6,43.3-65.7,45.5-105.1c0.1-1.1-0.2-2.2-0.8-3.1
		c-1.6-2.5-2.5-5.5-2.5-8.5c0-6.9,4.5-12.9,10.7-15.1v116.1c-6.2,2.2-10.7,8.1-10.7,15.1c0,8.8,7.2,16,16,16s16-7.2,16-16
		c0-6.9-4.5-12.9-10.7-15.1V295.6c6.2,2.2,10.7,8.1,10.7,15.1c0,3-0.8,6-2.5,8.5c-0.6,0.9-0.9,2-0.8,3.1
		c2.2,39.4,18.4,76.6,45.5,105.1c-25.1,41.5-26.5,80-23.1,105.3c0.2,1.2,0.3,2.4,0.5,3.5H84.3c-2.9,0-5.3,2.4-5.3,5.3
		s2.4,5.3,5.3,5.3h16.4c2.5,10.7,5.6,19.2,8,24.9H17.3C19.7,566.1,22.9,557.7,25.3,546.9z M-2.5,607.3l5-24.9h6.3
		c0,0,114.7,0,114.7,0l5,24.9H-2.5z"/>
	<path class="st0" d="M81.2,525.6c2.9-0.1,5.2-2.6,5.1-5.6c-1.4-30.4,5.3-60,20.1-88c1.4-2.6,0.4-5.8-2.2-7.2
		c-2.6-1.4-5.8-0.4-7.2,2.2c-15.7,29.7-22.9,61.2-21.3,93.5c0.1,2.9,2.5,5.1,5.3,5.1C81,525.6,81.1,525.6,81.2,525.6z"/>
</g>
<circle class="st1" cx="63" cy="451" r="208"/>
</svg>
