<?xml version="1.0" encoding="utf-8"?>
<!-- Generator: Adobe Illustrator 19.0.0, SVG Export Plug-In . SVG Version: 6.00 Build 0)  -->
<svg version="1.1" id="Capa_1" xmlns="http://www.w3.org/2000/svg" xmlns:xlink="http://www.w3.org/1999/xlink" x="0px" y="0px"
	 viewBox="-193 195 512 512" style="enable-background:new -193 195 512 512;" xml:space="preserve">
<style type="text/css">
	.st0{fill:none;stroke:#006DF0;stroke-width:16;stroke-miterlimit:10;}
	.st1{fill:none;stroke:#006DF0;stroke-width:15;stroke-miterlimit:10;}
</style>
<g>
	<path class="st0" d="M156.2,331.6c-7.6-7.6-16.9-11.4-27.8-11.4c-10.9,0-20.2,3.8-27.8,11.4c-7.6,7.6-11.4,16.9-11.4,27.8
		c0,7.1,1.8,13.7,5.3,19.7c3.5,6.1,8.3,10.8,14.3,14.2c0,7.1-0.6,13.3-1.7,18.7c-1.2,5.4-3.1,10.1-5.7,14.2
		c-2.7,4.1-5.4,7.6-8.3,10.4c-2.9,2.9-6.9,5.6-12.1,8.1c-5.2,2.5-10,4.6-14.4,6.3c-4.4,1.7-10.4,3.7-17.9,6
		c-13.6,4.2-24.1,8.1-31.5,11.7V367.2c6-3.4,10.8-8.1,14.3-14.2c3.5-6.1,5.3-12.6,5.3-19.7c0-10.9-3.8-20.2-11.4-27.8
		C17.8,297.8,8.5,294-2.4,294c-10.9,0-20.2,3.8-27.8,11.4c-7.6,7.6-11.4,16.9-11.4,27.8c0,7.1,1.8,13.7,5.3,19.7
		c3.5,6.1,8.3,10.8,14.3,14.2v167.6c-6,3.4-10.8,8.1-14.3,14.2c-3.5,6.1-5.3,12.6-5.3,19.7c0,10.9,3.8,20.2,11.4,27.8
		c7.6,7.6,16.9,11.4,27.8,11.4c10.9,0,20.2-3.8,27.8-11.4c7.6-7.6,11.4-16.9,11.4-27.8c0-7.1-1.8-13.7-5.3-19.7
		c-3.5-6.1-8.3-10.8-14.3-14.2v-5.3c0-9.4,2.8-16.2,8.5-20.4c5.7-4.2,17.2-9.1,34.7-14.5c18.4-5.9,32.2-11.4,41.5-16.6
		c30.5-17.3,45.9-45.5,46.2-84.6c6-3.4,10.8-8.1,14.3-14.2c3.5-6.1,5.3-12.6,5.3-19.7C167.7,348.5,163.9,339.3,156.2,331.6z
		 M11.5,582.7c-3.8,3.8-8.5,5.7-13.9,5.7c-5.5,0-10.1-1.9-13.9-5.7c-3.8-3.8-5.7-8.4-5.7-13.9c0-5.5,1.9-10.1,5.7-13.9
		c3.8-3.8,8.4-5.7,13.9-5.7c5.4,0,10.1,1.9,13.9,5.7c3.8,3.8,5.7,8.4,5.7,13.9C17.2,574.2,15.3,578.8,11.5,582.7z M11.5,347.2
		c-3.8,3.8-8.5,5.7-13.9,5.7c-5.5,0-10.1-1.9-13.9-5.7c-3.8-3.8-5.7-8.4-5.7-13.9c0-5.5,1.9-10.1,5.7-13.9c3.8-3.8,8.4-5.7,13.9-5.7
		c5.4,0,10.1,1.9,13.9,5.7c3.8,3.8,5.7,8.4,5.7,13.9C17.2,338.7,15.3,343.3,11.5,347.2z M142.3,373.3c-3.8,3.8-8.4,5.7-13.9,5.7
		c-5.5,0-10.1-1.9-13.9-5.7c-3.8-3.8-5.7-8.4-5.7-13.9c0-5.5,1.9-10.1,5.7-13.9c3.8-3.8,8.4-5.7,13.9-5.7c5.5,0,10.1,1.9,13.9,5.7
		c3.8,3.8,5.7,8.4,5.7,13.9C148,364.9,146.1,369.5,142.3,373.3z"/>
</g>
<circle class="st1" cx="63" cy="451" r="208"/>
</svg>
