<?xml version="1.0" encoding="utf-8"?>
<!-- Generator: Adobe Illustrator 19.0.0, SVG Export Plug-In . SVG Version: 6.00 Build 0)  -->
<svg version="1.1" id="Capa_1" xmlns="http://www.w3.org/2000/svg" xmlns:xlink="http://www.w3.org/1999/xlink" x="0px" y="0px"
	 viewBox="-223 25 512 512" style="enable-background:new -223 25 512 512;" xml:space="preserve">
<style type="text/css">
	.st0{fill:#006DF0;}
</style>
<g>
	<path id="LinkedIn__x28_alt_x29_" class="st0" d="M251.2,25h-436.4c-20.9,0-37.8,16.4-37.8,36.7v438.6c0,20.3,16.9,36.7,37.8,36.7
		h436.4c20.9,0,37.8-16.4,37.8-36.7V61.7C289,41.4,272.1,25,251.2,25z M-67.8,453.6h-77.4V222.4h77.4V453.6z M-106.4,190.8h-0.5
		c-25.9,0-42.8-17.7-42.8-40c0-22.7,17.3-39.9,43.8-39.9c26.5,0,42.7,17.3,43.2,39.9C-62.7,173.1-79.5,190.8-106.4,190.8z
		 M211.1,453.6h-77.3V329.9c0-31.1-11.2-52.3-39.2-52.3c-21.4,0-34.1,14.3-39.7,28.1c-2.1,4.9-2.6,11.8-2.6,18.7v129.1H-25
		c0,0,1-209.5,0-231.2h77.3v32.8C62.6,239.4,80.9,217,122,217c50.9,0,89.1,33,89.1,104.1L211.1,453.6L211.1,453.6z M51.8,255.9
		c0.1-0.2,0.3-0.5,0.5-0.7v0.7H51.8z"/>
</g>
</svg>
