<?xml version="1.0" encoding="utf-8"?>
<!-- Generator: Adobe Illustrator 19.0.0, SVG Export Plug-In . SVG Version: 6.00 Build 0)  -->
<svg version="1.1" id="Layer_1" xmlns="http://www.w3.org/2000/svg" xmlns:xlink="http://www.w3.org/1999/xlink" x="0px" y="0px"
	 viewBox="-193 195 512 512" style="enable-background:new -193 195 512 512;" xml:space="preserve">
<style type="text/css">
	.st0{fill:none;stroke:#006DF0;stroke-width:16;stroke-miterlimit:10;}
	.st1{fill:none;stroke:#006DF0;stroke-width:15;stroke-miterlimit:10;}
</style>
<g transform="translate(1 1)">
	<g>
		<g>
			<path class="st0" d="M38.3,231.5 M38.2,668.5 M38.2,649.5 M38.2,250.5"/>
			<path class="st0" d="M157,451L-23.5,345.5c-2.8-1.9-6.6-1.9-9.5,0c-2.8,1.9-4.8,4.8-4.8,8.6v206.1c0,3.8,1.9,6.6,4.8,8.6
				c1.9,0.9,2.8,0.9,4.8,0.9s2.9,0,4.8-0.9L157,468.1c2.8-1.9,4.8-4.8,4.8-8.6C161.8,455.7,159.8,452.8,157,451z M-18.8,370.2
				 M-18.8,544 M133.2,459.5"/>
		</g>
	</g>
</g>
<circle class="st1" cx="63" cy="451" r="208"/>
</svg>
