<?xml version="1.0" encoding="utf-8"?>
<!-- Generator: Adobe Illustrator 19.0.0, SVG Export Plug-In . SVG Version: 6.00 Build 0)  -->
<svg version="1.1" id="Capa_1" xmlns="http://www.w3.org/2000/svg" xmlns:xlink="http://www.w3.org/1999/xlink" x="0px" y="0px"
	 viewBox="-223 102.6 512 356.9" style="enable-background:new -223 102.6 512 356.9;" xml:space="preserve">
<style type="text/css">
	.st0{fill:#006DF0;}
</style>
<g>
	<path class="st0" d="M280.2,160c-6.3-27.2-28.5-47.3-55.4-50.3c-63.5-7.1-127.8-7.1-191.7-7.1c-64,0-128.2,0-191.7,7.1
		c-26.8,3-49.1,23.1-55.3,50.3c-8.9,38.8-9,81.1-9,121s0,82.2,8.9,121c6.3,27.2,28.5,47.3,55.3,50.3c63.5,7.1,127.8,7.1,191.7,7.1
		c64,0,128.2,0,191.7-7.1c26.8-3,49.1-23.1,55.3-50.3c8.9-38.8,9-81.1,9-121C289,241.1,289.1,198.7,280.2,160z M-33.1,360.5
		c0-56.6,0-112.7,0-169.3c54.3,28.3,108.2,56.4,162.8,84.9C75.3,304.3,21.3,332.3-33.1,360.5z"/>
</g>
</svg>
